<mxfile host="app.diagrams.net" agent="Mozilla/5.0 (Windows NT 10.0; Win64; x64) AppleWebKit/537.36 (KHTML, like Gecko) Chrome/135.0.0.0 Safari/537.36 Edg/135.0.0.0" version="26.2.9">
  <diagram name="Page-1" id="kn9_HWx7dokWyOdihB-6">
    <mxGraphModel dx="785" dy="433" grid="1" gridSize="10" guides="1" tooltips="1" connect="1" arrows="1" fold="1" page="1" pageScale="1" pageWidth="827" pageHeight="1169" math="0" shadow="0">
      <root>
        <mxCell id="0" />
        <mxCell id="1" parent="0" />
        <mxCell id="QHwBkECnCuje98DW1lXp-20" style="edgeStyle=orthogonalEdgeStyle;rounded=0;orthogonalLoop=1;jettySize=auto;html=1;entryX=0;entryY=0.5;entryDx=0;entryDy=0;endArrow=none;startFill=0;" edge="1" parent="1" source="QHwBkECnCuje98DW1lXp-1" target="QHwBkECnCuje98DW1lXp-6">
          <mxGeometry relative="1" as="geometry">
            <Array as="points">
              <mxPoint x="200" y="220" />
              <mxPoint x="200" y="105" />
            </Array>
          </mxGeometry>
        </mxCell>
        <mxCell id="QHwBkECnCuje98DW1lXp-21" style="edgeStyle=orthogonalEdgeStyle;rounded=0;orthogonalLoop=1;jettySize=auto;html=1;entryX=0;entryY=0.5;entryDx=0;entryDy=0;endArrow=none;startFill=0;" edge="1" parent="1" source="QHwBkECnCuje98DW1lXp-1" target="QHwBkECnCuje98DW1lXp-7">
          <mxGeometry relative="1" as="geometry" />
        </mxCell>
        <mxCell id="QHwBkECnCuje98DW1lXp-22" style="edgeStyle=orthogonalEdgeStyle;rounded=0;orthogonalLoop=1;jettySize=auto;html=1;entryX=0;entryY=0.5;entryDx=0;entryDy=0;endArrow=none;startFill=0;" edge="1" parent="1" source="QHwBkECnCuje98DW1lXp-1" target="QHwBkECnCuje98DW1lXp-8">
          <mxGeometry relative="1" as="geometry">
            <Array as="points">
              <mxPoint x="260" y="220" />
              <mxPoint x="260" y="185" />
            </Array>
          </mxGeometry>
        </mxCell>
        <mxCell id="QHwBkECnCuje98DW1lXp-23" style="edgeStyle=orthogonalEdgeStyle;rounded=0;orthogonalLoop=1;jettySize=auto;html=1;entryX=0.5;entryY=1;entryDx=0;entryDy=0;" edge="1" parent="1" source="QHwBkECnCuje98DW1lXp-1" target="QHwBkECnCuje98DW1lXp-4">
          <mxGeometry relative="1" as="geometry" />
        </mxCell>
        <mxCell id="QHwBkECnCuje98DW1lXp-29" style="edgeStyle=orthogonalEdgeStyle;rounded=0;orthogonalLoop=1;jettySize=auto;html=1;entryX=0;entryY=0.5;entryDx=0;entryDy=0;endArrow=none;startFill=0;" edge="1" parent="1" source="QHwBkECnCuje98DW1lXp-1" target="QHwBkECnCuje98DW1lXp-26">
          <mxGeometry relative="1" as="geometry">
            <Array as="points">
              <mxPoint x="170" y="245" />
            </Array>
          </mxGeometry>
        </mxCell>
        <mxCell id="QHwBkECnCuje98DW1lXp-38" style="edgeStyle=orthogonalEdgeStyle;rounded=0;orthogonalLoop=1;jettySize=auto;html=1;entryX=0;entryY=0.5;entryDx=0;entryDy=0;endArrow=none;startFill=0;" edge="1" parent="1" source="QHwBkECnCuje98DW1lXp-1" target="QHwBkECnCuje98DW1lXp-37">
          <mxGeometry relative="1" as="geometry">
            <Array as="points">
              <mxPoint x="125" y="220" />
              <mxPoint x="125" y="315" />
            </Array>
          </mxGeometry>
        </mxCell>
        <mxCell id="QHwBkECnCuje98DW1lXp-1" value="&lt;font style=&quot;font-size: 8px;&quot;&gt;User&lt;/font&gt;" style="shape=umlActor;verticalLabelPosition=bottom;verticalAlign=top;html=1;outlineConnect=0;" vertex="1" parent="1">
          <mxGeometry x="160" y="200" width="20" height="40" as="geometry" />
        </mxCell>
        <mxCell id="QHwBkECnCuje98DW1lXp-41" style="edgeStyle=orthogonalEdgeStyle;rounded=0;orthogonalLoop=1;jettySize=auto;html=1;entryX=0;entryY=0.5;entryDx=0;entryDy=0;endArrow=none;startFill=0;" edge="1" parent="1" source="QHwBkECnCuje98DW1lXp-2" target="QHwBkECnCuje98DW1lXp-39">
          <mxGeometry relative="1" as="geometry" />
        </mxCell>
        <mxCell id="QHwBkECnCuje98DW1lXp-2" value="&lt;font style=&quot;font-size: 8px;&quot;&gt;Unregistered User&lt;/font&gt;" style="shape=umlActor;verticalLabelPosition=bottom;verticalAlign=top;html=1;outlineConnect=0;" vertex="1" parent="1">
          <mxGeometry x="160" y="400" width="20" height="40" as="geometry" />
        </mxCell>
        <mxCell id="QHwBkECnCuje98DW1lXp-24" style="edgeStyle=orthogonalEdgeStyle;rounded=0;orthogonalLoop=1;jettySize=auto;html=1;entryX=0.5;entryY=1;entryDx=0;entryDy=0;endArrow=open;endFill=0;dashed=1;" edge="1" parent="1" source="QHwBkECnCuje98DW1lXp-4" target="QHwBkECnCuje98DW1lXp-5">
          <mxGeometry relative="1" as="geometry" />
        </mxCell>
        <mxCell id="QHwBkECnCuje98DW1lXp-25" value="&lt;font style=&quot;font-size: 8px;&quot;&gt;&amp;lt;&amp;lt;include&amp;gt;&amp;gt;&lt;/font&gt;" style="edgeLabel;html=1;align=center;verticalAlign=middle;resizable=0;points=[];" vertex="1" connectable="0" parent="QHwBkECnCuje98DW1lXp-24">
          <mxGeometry x="0.0333" y="-2" relative="1" as="geometry">
            <mxPoint as="offset" />
          </mxGeometry>
        </mxCell>
        <mxCell id="QHwBkECnCuje98DW1lXp-4" value="&lt;font style=&quot;font-size: 8px;&quot;&gt;login&lt;/font&gt;" style="ellipse;whiteSpace=wrap;html=1;" vertex="1" parent="1">
          <mxGeometry x="145" y="150" width="50" height="30" as="geometry" />
        </mxCell>
        <mxCell id="QHwBkECnCuje98DW1lXp-5" value="&lt;font style=&quot;font-size: 6px;&quot;&gt;insert login and password&lt;/font&gt;" style="ellipse;whiteSpace=wrap;html=1;" vertex="1" parent="1">
          <mxGeometry x="145" y="60" width="50" height="30" as="geometry" />
        </mxCell>
        <mxCell id="QHwBkECnCuje98DW1lXp-16" style="edgeStyle=orthogonalEdgeStyle;rounded=0;orthogonalLoop=1;jettySize=auto;html=1;entryX=0;entryY=0.5;entryDx=0;entryDy=0;endArrow=open;endFill=0;dashed=1;" edge="1" parent="1" source="QHwBkECnCuje98DW1lXp-6" target="QHwBkECnCuje98DW1lXp-9">
          <mxGeometry relative="1" as="geometry" />
        </mxCell>
        <mxCell id="QHwBkECnCuje98DW1lXp-17" value="&lt;font style=&quot;font-size: 8px;&quot;&gt;&amp;lt;&amp;lt;include&amp;gt;&amp;gt;&lt;/font&gt;" style="edgeLabel;html=1;align=center;verticalAlign=middle;resizable=0;points=[];" vertex="1" connectable="0" parent="QHwBkECnCuje98DW1lXp-16">
          <mxGeometry x="-0.0388" y="-1" relative="1" as="geometry">
            <mxPoint as="offset" />
          </mxGeometry>
        </mxCell>
        <mxCell id="QHwBkECnCuje98DW1lXp-6" value="&lt;font style=&quot;font-size: 6px;&quot;&gt;Search Photo&lt;/font&gt;" style="ellipse;whiteSpace=wrap;html=1;" vertex="1" parent="1">
          <mxGeometry x="280" y="90" width="50" height="30" as="geometry" />
        </mxCell>
        <mxCell id="QHwBkECnCuje98DW1lXp-18" style="edgeStyle=orthogonalEdgeStyle;rounded=0;orthogonalLoop=1;jettySize=auto;html=1;entryX=0;entryY=0.5;entryDx=0;entryDy=0;dashed=1;endArrow=none;endFill=0;startArrow=open;startFill=0;" edge="1" parent="1" source="QHwBkECnCuje98DW1lXp-7" target="QHwBkECnCuje98DW1lXp-10">
          <mxGeometry relative="1" as="geometry" />
        </mxCell>
        <mxCell id="QHwBkECnCuje98DW1lXp-19" value="&lt;span style=&quot;font-size: 8px;&quot;&gt;&amp;lt;&amp;lt;extend&amp;gt;&amp;gt;&lt;/span&gt;" style="edgeLabel;html=1;align=center;verticalAlign=middle;resizable=0;points=[];" vertex="1" connectable="0" parent="QHwBkECnCuje98DW1lXp-18">
          <mxGeometry y="3" relative="1" as="geometry">
            <mxPoint as="offset" />
          </mxGeometry>
        </mxCell>
        <mxCell id="QHwBkECnCuje98DW1lXp-7" value="&lt;font style=&quot;font-size: 6px;&quot;&gt;View Profile&lt;/font&gt;" style="ellipse;whiteSpace=wrap;html=1;" vertex="1" parent="1">
          <mxGeometry x="280" y="130" width="50" height="30" as="geometry" />
        </mxCell>
        <mxCell id="QHwBkECnCuje98DW1lXp-12" style="edgeStyle=orthogonalEdgeStyle;rounded=0;orthogonalLoop=1;jettySize=auto;html=1;entryX=0;entryY=0.5;entryDx=0;entryDy=0;dashed=1;endArrow=open;endFill=0;" edge="1" parent="1" source="QHwBkECnCuje98DW1lXp-8" target="QHwBkECnCuje98DW1lXp-11">
          <mxGeometry relative="1" as="geometry" />
        </mxCell>
        <mxCell id="QHwBkECnCuje98DW1lXp-13" value="&lt;font style=&quot;font-size: 8px;&quot;&gt;&amp;lt;&amp;lt;include&amp;gt;&amp;gt;&lt;/font&gt;" style="edgeLabel;html=1;align=center;verticalAlign=middle;resizable=0;points=[];" vertex="1" connectable="0" parent="QHwBkECnCuje98DW1lXp-12">
          <mxGeometry x="-0.075" y="2" relative="1" as="geometry">
            <mxPoint as="offset" />
          </mxGeometry>
        </mxCell>
        <mxCell id="QHwBkECnCuje98DW1lXp-8" value="&lt;font style=&quot;font-size: 6px;&quot;&gt;Add Photo&lt;/font&gt;" style="ellipse;whiteSpace=wrap;html=1;" vertex="1" parent="1">
          <mxGeometry x="280" y="170" width="50" height="30" as="geometry" />
        </mxCell>
        <mxCell id="QHwBkECnCuje98DW1lXp-9" value="&lt;font style=&quot;font-size: 6px;&quot;&gt;Search with Tag&lt;/font&gt;" style="ellipse;whiteSpace=wrap;html=1;" vertex="1" parent="1">
          <mxGeometry x="440" y="60" width="50" height="30" as="geometry" />
        </mxCell>
        <mxCell id="QHwBkECnCuje98DW1lXp-10" value="&lt;span style=&quot;font-size: 6px;&quot;&gt;Edit Profile&lt;/span&gt;" style="ellipse;whiteSpace=wrap;html=1;" vertex="1" parent="1">
          <mxGeometry x="440" y="110" width="50" height="30" as="geometry" />
        </mxCell>
        <mxCell id="QHwBkECnCuje98DW1lXp-11" value="&lt;font style=&quot;font-size: 6px;&quot;&gt;Insert Description&lt;/font&gt;" style="ellipse;whiteSpace=wrap;html=1;" vertex="1" parent="1">
          <mxGeometry x="440" y="160" width="50" height="30" as="geometry" />
        </mxCell>
        <mxCell id="QHwBkECnCuje98DW1lXp-30" style="edgeStyle=orthogonalEdgeStyle;rounded=0;orthogonalLoop=1;jettySize=auto;html=1;entryX=0;entryY=0.5;entryDx=0;entryDy=0;dashed=1;startArrow=open;startFill=0;endArrow=none;" edge="1" parent="1" source="QHwBkECnCuje98DW1lXp-26" target="QHwBkECnCuje98DW1lXp-27">
          <mxGeometry relative="1" as="geometry" />
        </mxCell>
        <mxCell id="QHwBkECnCuje98DW1lXp-34" value="&lt;font style=&quot;font-size: 8px;&quot;&gt;&amp;lt;&amp;lt;extend&amp;gt;&amp;gt;&lt;/font&gt;" style="edgeLabel;html=1;align=center;verticalAlign=middle;resizable=0;points=[];" vertex="1" connectable="0" parent="QHwBkECnCuje98DW1lXp-30">
          <mxGeometry x="-0.1393" relative="1" as="geometry">
            <mxPoint as="offset" />
          </mxGeometry>
        </mxCell>
        <mxCell id="QHwBkECnCuje98DW1lXp-35" style="edgeStyle=orthogonalEdgeStyle;rounded=0;orthogonalLoop=1;jettySize=auto;html=1;entryX=0;entryY=0.5;entryDx=0;entryDy=0;endArrow=none;startFill=0;startArrow=open;dashed=1;" edge="1" parent="1" source="QHwBkECnCuje98DW1lXp-26" target="QHwBkECnCuje98DW1lXp-28">
          <mxGeometry relative="1" as="geometry">
            <Array as="points">
              <mxPoint x="335" y="315" />
            </Array>
          </mxGeometry>
        </mxCell>
        <mxCell id="QHwBkECnCuje98DW1lXp-36" value="&lt;font style=&quot;font-size: 8px;&quot;&gt;&amp;lt;&amp;lt;extend&amp;gt;&amp;gt;&lt;/font&gt;" style="edgeLabel;html=1;align=center;verticalAlign=middle;resizable=0;points=[];" vertex="1" connectable="0" parent="QHwBkECnCuje98DW1lXp-35">
          <mxGeometry x="-0.0143" y="2" relative="1" as="geometry">
            <mxPoint as="offset" />
          </mxGeometry>
        </mxCell>
        <mxCell id="QHwBkECnCuje98DW1lXp-26" value="&lt;font style=&quot;font-size: 6px;&quot;&gt;View Photos&lt;/font&gt;" style="ellipse;whiteSpace=wrap;html=1;" vertex="1" parent="1">
          <mxGeometry x="310" y="230" width="50" height="30" as="geometry" />
        </mxCell>
        <mxCell id="QHwBkECnCuje98DW1lXp-27" value="&lt;span style=&quot;font-size: 6px;&quot;&gt;Comment on Photo&lt;/span&gt;" style="ellipse;whiteSpace=wrap;html=1;" vertex="1" parent="1">
          <mxGeometry x="460" y="230" width="50" height="30" as="geometry" />
        </mxCell>
        <mxCell id="QHwBkECnCuje98DW1lXp-28" value="&lt;font style=&quot;font-size: 6px;&quot;&gt;Edit Photo&lt;/font&gt;" style="ellipse;whiteSpace=wrap;html=1;" vertex="1" parent="1">
          <mxGeometry x="460" y="300" width="50" height="30" as="geometry" />
        </mxCell>
        <mxCell id="QHwBkECnCuje98DW1lXp-37" value="&lt;font style=&quot;font-size: 6px;&quot;&gt;Edit Photo&lt;/font&gt;" style="ellipse;whiteSpace=wrap;html=1;" vertex="1" parent="1">
          <mxGeometry x="145" y="300" width="50" height="30" as="geometry" />
        </mxCell>
        <mxCell id="QHwBkECnCuje98DW1lXp-42" style="edgeStyle=orthogonalEdgeStyle;rounded=0;orthogonalLoop=1;jettySize=auto;html=1;entryX=0;entryY=0.5;entryDx=0;entryDy=0;endArrow=open;endFill=0;dashed=1;" edge="1" parent="1" source="QHwBkECnCuje98DW1lXp-39" target="QHwBkECnCuje98DW1lXp-40">
          <mxGeometry relative="1" as="geometry" />
        </mxCell>
        <mxCell id="QHwBkECnCuje98DW1lXp-46" value="&lt;font style=&quot;font-size: 8px;&quot;&gt;&amp;lt;&amp;lt;include&amp;gt;&amp;gt;&lt;/font&gt;" style="edgeLabel;html=1;align=center;verticalAlign=middle;resizable=0;points=[];" vertex="1" connectable="0" parent="QHwBkECnCuje98DW1lXp-42">
          <mxGeometry x="-0.2753" relative="1" as="geometry">
            <mxPoint x="10" as="offset" />
          </mxGeometry>
        </mxCell>
        <mxCell id="QHwBkECnCuje98DW1lXp-39" value="&lt;font style=&quot;font-size: 6px;&quot;&gt;Register&lt;/font&gt;" style="ellipse;whiteSpace=wrap;html=1;" vertex="1" parent="1">
          <mxGeometry x="280" y="405" width="50" height="30" as="geometry" />
        </mxCell>
        <mxCell id="QHwBkECnCuje98DW1lXp-40" value="&lt;font style=&quot;font-size: 6px;&quot;&gt;Edit Photo&lt;/font&gt;" style="ellipse;whiteSpace=wrap;html=1;" vertex="1" parent="1">
          <mxGeometry x="440" y="405" width="50" height="30" as="geometry" />
        </mxCell>
      </root>
    </mxGraphModel>
  </diagram>
</mxfile>
